<?xml version="1.0" encoding="utf-8"?>
<!-- Generator: Adobe Illustrator 19.0.0, SVG Export Plug-In . SVG Version: 6.00 Build 0)  -->
<svg version="1.1" id="Calque_1" xmlns="http://www.w3.org/2000/svg" xmlns:xlink="http://www.w3.org/1999/xlink" x="0px" y="0px"
	 viewBox="0 0 112.4 105.6" style="enable-background:new 0 0 112.4 105.6;" xml:space="preserve">
<style type="text/css">
	.st0{clip-path:url(#SVGID_2_);fill:#FFFFFF;}
</style>
<g>
	<defs>
		<rect id="SVGID_1_" x="0" y="0" width="112.4" height="105.6"/>
	</defs>
	<clipPath id="SVGID_2_">
		<use xlink:href="#SVGID_1_"  style="overflow:visible;"/>
	</clipPath>
	<path class="st0" d="M59.1,77.3l13.5-5.8l24.1,21.7L59.1,77.3z M15.7,93.3l24.1-21.7l13.5,5.8L15.7,93.3z M12.9,57.7
		c-0.1-1.2-0.6-2.3-1.3-3.3l32.8-42.1c0.6,0.3,1.2,0.5,1.9,0.6l-2.5,25.6c-3.1,0.5-5.4,3.2-5.4,6.4c0,3.6,2.9,6.5,6.5,6.5
		c1.5,0,2.8-0.5,3.9-1.3l5.7,5.2L39.3,68.9L12.9,57.7z M70.8,69.9l-14.6,6.2l-14.6-6.2l14.6-13.2L70.8,69.9z M63.6,50
		c1.1,0.8,2.4,1.3,3.9,1.3c3.6,0,6.5-2.9,6.5-6.5c0-3.2-2.3-5.8-5.4-6.4l-2.5-25.6c0.7-0.1,1.3-0.3,1.9-0.6l32.8,42.1
		c-0.7,0.9-1.2,2-1.3,3.3L73.1,68.9L57.9,55.2L63.6,50z M105.9,92.6c-1.8,0-3.4,0.7-4.5,1.8L74.9,70.6l24.7-10.5
		c0.7,2.8,3.2,4.8,6.3,4.8c3.6,0,6.5-2.9,6.5-6.5c0-3.6-2.9-6.5-6.5-6.5c-1.2,0-2.4,0.4-3.4,1L69.8,11c1.2-1.2,1.9-2.8,1.9-4.5
		c0-3.6-2.9-6.5-6.5-6.5s-6.5,2.9-6.5,6.5c0,3.1,2.2,5.7,5.1,6.3l2.5,25.7c-3,0.5-5.3,3.2-5.3,6.4c0,1.3,0.4,2.5,1,3.5l-5.8,5.3
		l-5.8-5.3c0.7-1,1-2.2,1-3.5c0-3.2-2.3-5.8-5.3-6.4l2.5-25.7c2.9-0.6,5.1-3.2,5.1-6.3c0-3.6-2.9-6.5-6.5-6.5s-6.5,2.9-6.5,6.5
		c0,1.8,0.7,3.4,1.9,4.5L9.9,52.9c-1-0.6-2.1-1-3.4-1c-3.6,0-6.5,2.9-6.5,6.5c0,3.6,2.9,6.5,6.5,6.5c3,0,5.5-2.1,6.3-4.8l24.7,10.5
		L11,94.4c-1.2-1.1-2.8-1.8-4.5-1.8c-3.6,0-6.5,2.9-6.5,6.5c0,3.6,2.9,6.5,6.5,6.5s6.5-2.9,6.5-6.5c0-0.7-0.1-1.4-0.4-2.1l43.6-18.5
		L99.7,97c-0.2,0.7-0.4,1.3-0.4,2.1c0,3.6,2.9,6.5,6.5,6.5c3.6,0,6.5-2.9,6.5-6.5C112.4,95.5,109.5,92.6,105.9,92.6"/>
</g>
</svg>
