<?xml version="1.0" encoding="utf-8"?>
<!-- Generator: Adobe Illustrator 19.0.0, SVG Export Plug-In . SVG Version: 6.00 Build 0)  -->
<svg version="1.1" id="Calque_1" xmlns="http://www.w3.org/2000/svg" xmlns:xlink="http://www.w3.org/1999/xlink" x="0px" y="0px"
	 viewBox="0 0 148.6 109.1" style="enable-background:new 0 0 148.6 109.1;" xml:space="preserve">
<style type="text/css">
	.st0{fill:#FFFFFF;}
</style>
<path class="st0" d="M74.6,51.2C60.5,51.2,49,39.7,49,25.6C49,11.5,60.5,0,74.6,0c14.1,0,25.6,11.5,25.6,25.6
	C100.2,39.7,88.7,51.2,74.6,51.2z M74.6,6.3c-10.7,0-19.3,8.7-19.3,19.3s8.7,19.3,19.3,19.3s19.3-8.7,19.3-19.3S85.2,6.3,74.6,6.3z"
	/>
<path id="XMLID_13_" class="st0" d="M77.2,27.9l-1.9,1.9c-1.3,1.3-1,3.7,0.7,5.3L95.9,55c1.7,1.7,4,2,5.3,0.7l1.9-1.9
	c0.5-0.5,0.7-1.2,0.7-2l0.1-0.1l-0.1-0.1c0-1.1-0.5-2.2-1.4-3.2L82.5,28.6C80.9,26.9,78.5,26.6,77.2,27.9z"/>
<g>
	<path class="st0" d="M9.8,99.8c-3.1,0-5.5-1-7.2-2.9C0.9,95,0,92.4,0,88.9c0-3.4,0.8-6.1,2.5-8.2c1.7-2,3.9-3.1,6.8-3.1
		c2.5,0,4.5,0.9,5.9,2.6c1.4,1.7,2.2,4.1,2.2,7.1V89H2c0,2.9,0.7,5.2,2,6.7C5.4,97.3,7.3,98,9.8,98c1.2,0,2.3-0.1,3.2-0.3
		c0.9-0.2,2.1-0.5,3.5-1.1v1.8c-1.2,0.5-2.3,0.9-3.3,1.1C12.2,99.7,11.1,99.8,9.8,99.8z M9.3,79.4c-2,0-3.7,0.7-4.9,2
		s-2,3.3-2.2,5.8h13.2c0-2.5-0.5-4.4-1.6-5.8C12.6,80.1,11.2,79.4,9.3,79.4z"/>
	<path class="st0" d="M28.5,88.5l-7.4-10.3h2.2l6.3,9l6.3-9H38l-7.3,10.3l7.8,10.9h-2.3l-6.7-9.5l-6.7,9.5h-2.1L28.5,88.5z"/>
	<path class="st0" d="M52.3,99.8c-3.3,0-5.7-1.2-7.2-3.7H45l0.1,1.6c0.1,1,0.1,2,0.1,3.2v8.1h-1.9V78.1h1.6l0.4,3h0.1
		c1.5-2.3,3.8-3.4,7-3.4c2.9,0,5.1,0.9,6.6,2.8c1.5,1.9,2.3,4.6,2.3,8.2c0,3.5-0.8,6.2-2.4,8.1C57.2,98.8,55.1,99.8,52.3,99.8z
		 M52.3,98.1c2.2,0,3.9-0.8,5.1-2.4c1.2-1.6,1.8-3.9,1.8-6.8c0-6.3-2.3-9.4-6.8-9.4c-2.5,0-4.3,0.7-5.5,2c-1.2,1.4-1.7,3.6-1.7,6.7
		v0.6c0,3.3,0.6,5.7,1.7,7.1C48,97.4,49.8,98.1,52.3,98.1z"/>
	<path class="st0" d="M69,99.4h-1.9V68.9H69V99.4z"/>
	<path class="st0" d="M93.8,88.7c0,3.5-0.8,6.2-2.5,8.1c-1.7,2-4,2.9-7,2.9c-1.9,0-3.5-0.5-4.9-1.4c-1.4-0.9-2.5-2.2-3.3-3.9
		s-1.1-3.6-1.1-5.8c0-3.5,0.8-6.2,2.5-8.1c1.7-1.9,4-2.9,6.9-2.9c2.9,0,5.2,1,6.9,2.9C92.9,82.6,93.8,85.3,93.8,88.7z M77,88.7
		c0,2.9,0.6,5.2,1.9,6.8c1.3,1.6,3.1,2.5,5.5,2.5s4.2-0.8,5.5-2.5c1.3-1.6,1.9-3.9,1.9-6.8c0-2.9-0.7-5.2-1.9-6.8
		c-1.3-1.6-3.1-2.4-5.5-2.4c-2.3,0-4.2,0.8-5.4,2.4C77.6,83.5,77,85.8,77,88.7z"/>
	<path class="st0" d="M108,77.7c0.9,0,1.9,0.1,2.9,0.3l-0.4,1.9c-0.9-0.2-1.8-0.3-2.8-0.3c-1.8,0-3.3,0.8-4.5,2.3
		c-1.2,1.5-1.7,3.5-1.7,5.8v11.7h-1.9V78.1h1.6l0.2,3.8h0.1c0.9-1.6,1.8-2.7,2.8-3.3C105.4,78,106.6,77.7,108,77.7z"/>
	<path class="st0" d="M123.9,99.8c-3.1,0-5.5-1-7.2-2.9c-1.7-1.9-2.6-4.6-2.6-8c0-3.4,0.8-6.1,2.5-8.2c1.7-2,3.9-3.1,6.8-3.1
		c2.5,0,4.5,0.9,5.9,2.6c1.4,1.7,2.2,4.1,2.2,7.1V89h-15.3c0,2.9,0.7,5.2,2,6.7c1.3,1.5,3.3,2.3,5.7,2.3c1.2,0,2.3-0.1,3.2-0.3
		c0.9-0.2,2.1-0.5,3.5-1.1v1.8c-1.2,0.5-2.3,0.9-3.3,1.1C126.2,99.7,125.1,99.8,123.9,99.8z M123.3,79.4c-2,0-3.7,0.7-4.9,2
		c-1.2,1.4-2,3.3-2.2,5.8h13.2c0-2.5-0.5-4.4-1.6-5.8C126.7,80.1,125.2,79.4,123.3,79.4z"/>
	<path class="st0" d="M145.7,77.7c0.9,0,1.9,0.1,2.9,0.3l-0.4,1.9c-0.9-0.2-1.8-0.3-2.8-0.3c-1.8,0-3.3,0.8-4.5,2.3
		c-1.2,1.5-1.7,3.5-1.7,5.8v11.7h-1.9V78.1h1.6l0.2,3.8h0.1c0.9-1.6,1.8-2.7,2.8-3.3C143,78,144.2,77.7,145.7,77.7z"/>
</g>
</svg>
