<?xml version="1.0" encoding="utf-8"?>
<!-- Generator: Adobe Illustrator 19.0.0, SVG Export Plug-In . SVG Version: 6.00 Build 0)  -->
<svg version="1.1" id="Calque_1" xmlns="http://www.w3.org/2000/svg" xmlns:xlink="http://www.w3.org/1999/xlink" x="0px" y="0px"
	 viewBox="0 0 7 7" style="enable-background:new 0 0 7 7;" xml:space="preserve">
<style type="text/css">
	.st0{fill:#02004A;}
</style>
<path class="st0" d="M6.1,7H0.9C0.4,7,0,6.6,0,6.1V0.9C0,0.4,0.4,0,0.9,0h5.2C6.6,0,7,0.4,7,0.9v5.2C7,6.6,6.6,7,6.1,7z M1,0.7
	C0.9,0.7,0.7,0.9,0.7,1v5c0,0.2,0.1,0.3,0.3,0.3h5c0.2,0,0.3-0.1,0.3-0.3V1c0-0.2-0.1-0.3-0.3-0.3H1z"/>
</svg>
