<?xml version="1.0" encoding="utf-8"?>
<!-- Generator: Adobe Illustrator 19.0.0, SVG Export Plug-In . SVG Version: 6.00 Build 0)  -->
<svg version="1.1" id="Calque_1" xmlns="http://www.w3.org/2000/svg" xmlns:xlink="http://www.w3.org/1999/xlink" x="0px" y="0px"
	 viewBox="-448 235.7 109.8 79.4" style="enable-background:new -448 235.7 109.8 79.4;" xml:space="preserve">
<style type="text/css">
	.st0{fill:#00005B;}
</style>
<path id="XMLID_131_" class="st0" d="M-338.2,255.7c0-1.2,0-2-0.6-2.8c-0.9-1.2-2.3-1.6-4.8-1.6l-55.6,0.1c-1.3,0-2.2-0.5-2.9-1.5
	l-3.6-10.9c-1.4-2.2-3.5-3.3-6-3.3l0,0h-29.1c-4.3,0-7.1,2.8-7.1,7.1v14.5v14.5c0,11.8,0,23.8,0,35.7c0,2.1,0.7,4,2.1,5.4
	c1.3,1.3,3.3,2.1,5.3,2.1l0,0c31.7-0.1,63.3-0.1,95.1,0l0,0c2.1,0,4-0.7,5.3-2.1c1.3-1.3,2-3.2,2-5.3c-0.1-16.4-0.1-32.7,0-49
	C-338.2,258.2-338.2,255.7-338.2,255.7z M-440.9,239.5h29.1l0,0c1.2,0,2,0.5,2.7,1.4l3.2,10.2c1.4,2.1,4.9-0.1,7.4,0l-45.7,0.1v-8.5
	C-444,240.6-443.1,239.5-440.9,239.5z M-342.2,307.4c0,1.1-0.4,2-0.9,2.6c-0.6,0.6-1.5,1.1-2.6,0.9c-15.8,0-31.7,0-47.5,0
	s-31.7,0-47.5,0l0,0c-1.1,0-2-0.4-2.6-0.9c-0.6-0.6-0.9-1.5-0.9-2.7c0-12.3,0-24.7,0-37v-13.9c0-0.4,0-0.7,0.1-1.1h101.6
	c0.1,0.4,0.2,0.8,0.2,1.3C-342.2,273.6-342.2,290.6-342.2,307.4z"/>
</svg>
