<?xml version="1.0" encoding="utf-8"?>
<!-- Generator: Adobe Illustrator 19.0.0, SVG Export Plug-In . SVG Version: 6.00 Build 0)  -->
<svg version="1.1" id="Calque_1" xmlns="http://www.w3.org/2000/svg" xmlns:xlink="http://www.w3.org/1999/xlink" x="0px" y="0px"
	 viewBox="-438.4 244.1 104.6 75.6" style="enable-background:new -438.4 244.1 104.6 75.6;" xml:space="preserve">
<style type="text/css">
	.st0{fill:#FFFFFF;}
</style>
<path id="XMLID_131_" class="st0" d="M-333.8,263.1c0-1.1,0-1.9-0.6-2.7c-0.9-1.1-2.2-1.6-4.6-1.6l-53,0.1c-1.2,0-2.1-0.4-2.8-1.5
	l-3.5-10.4c-1.3-2.1-3.3-3.1-5.7-3.1l0,0h-27.8c-4.1,0-6.8,2.7-6.8,6.8v13.8v13.8c0,11.3,0,22.6,0,34c0,2,0.7,3.8,2,5.1
	c1.2,1.2,3.1,2,5,2l0,0c30.2-0.1,60.3-0.1,90.6,0l0,0c2,0,3.8-0.7,5-2c1.2-1.2,1.9-3,1.9-5c-0.1-15.6-0.1-31.1,0-46.7
	C-333.8,265.5-333.8,263.1-333.8,263.1z M-431.6,247.7h27.8l0,0c1.1,0,1.9,0.4,2.6,1.3l3,9.7c1.3,2,4.7-0.1,7,0l-43.5,0.1v-8.1
	C-434.6,248.7-433.7,247.7-431.6,247.7z M-337.6,312.4c0,1-0.3,1.9-0.9,2.5c-0.6,0.6-1.4,1-2.5,0.9c-15.1,0-30.2,0-45.3,0
	c-15.1,0-30.2,0-45.3,0l0,0c-1,0-1.9-0.3-2.5-0.9c-0.6-0.6-0.9-1.4-0.9-2.6c0-11.7,0-23.5,0-35.2v-13.3c0-0.3,0-0.7,0.1-1h96.8
	c0.1,0.3,0.2,0.8,0.2,1.2C-337.6,280.2-337.6,296.4-337.6,312.4z"/>
</svg>
