<?xml version="1.0" encoding="utf-8"?>
<!-- Generator: Adobe Illustrator 19.0.0, SVG Export Plug-In . SVG Version: 6.00 Build 0)  -->
<svg version="1.1" id="Calque_1" xmlns="http://www.w3.org/2000/svg" xmlns:xlink="http://www.w3.org/1999/xlink" x="0px" y="0px"
	 viewBox="-451 252.3 54.5 56.8" style="enable-background:new -451 252.3 54.5 56.8;" xml:space="preserve">
<style type="text/css">
	.st0{fill:#FFFFFF;}
</style>
<path id="XMLID_2_" class="st0" d="M-423.9,280.7c6.6,6,12.9,11.8,19.3,17.6c2.4,2.2,4.7,4.3,7.1,6.5c1.1,1.1,1.3,2.5,0.4,3.5
	c-1,1.1-2.4,1.1-3.6,0c-9.3-8.5-18.6-17.1-27.9-25.6c-1.4-1.3-1.4-2.7,0-4c9.2-8.5,18.5-17,27.7-25.4c0.4-0.4,1-0.8,1.6-0.9
	c1.1-0.3,2.1,0.3,2.5,1.3c0.5,1,0.3,2-0.6,2.9c-2.2,2.1-4.4,4.1-6.7,6.1c-6.4,5.9-12.8,11.7-19.2,17.6
	C-423.4,280.4-423.5,280.5-423.9,280.7z"/>
<path id="XMLID_1_" class="st0" d="M-445.1,280.7c6.6,6,12.9,11.8,19.3,17.6c2.4,2.2,4.7,4.3,7.1,6.5c1.1,1.1,1.3,2.5,0.3,3.5
	c-1,1.1-2.4,1.1-3.6,0c-9.3-8.5-18.6-17.1-27.9-25.6c-1.4-1.3-1.4-2.7,0-4c9.3-8.5,18.5-17,27.8-25.4c0.4-0.4,1-0.8,1.6-0.9
	c1.1-0.3,2.1,0.3,2.5,1.3c0.5,1,0.3,2-0.6,2.9c-2.2,2.1-4.4,4.1-6.7,6.1c-6.4,5.9-12.8,11.7-19.2,17.6
	C-444.8,280.4-444.9,280.5-445.1,280.7z"/>
</svg>
