<?xml version="1.0" encoding="utf-8"?>
<!-- Generator: Adobe Illustrator 19.0.0, SVG Export Plug-In . SVG Version: 6.00 Build 0)  -->
<svg version="1.1" id="Calque_1" xmlns="http://www.w3.org/2000/svg" xmlns:xlink="http://www.w3.org/1999/xlink" x="0px" y="0px"
	 viewBox="0 0 5.8 7.2" style="enable-background:new 0 0 5.8 7.2;" xml:space="preserve">
<style type="text/css">
	.st0{fill:#02004A;}
</style>
<path class="st0" d="M0,3.6c0-1,0-2,0-2.9c0-0.2,0-0.4,0.3-0.6C0.5-0.1,0.7,0,0.9,0.1c1.5,1,3,2,4.5,2.9c0.1,0.1,0.3,0.2,0.3,0.4
	c0.1,0.2,0,0.5-0.3,0.6C4,5,2.6,6,1.2,6.9C1.1,7,1,7,0.9,7.1c-0.2,0.1-0.4,0.1-0.6,0C0.1,7,0,6.9,0,6.6C0,5.6,0,4.6,0,3.6z M0.7,0.9
	c0,1.8,0,3.6,0,5.5c1.4-0.9,2.8-1.8,4.2-2.7C3.5,2.7,2.1,1.8,0.7,0.9z"/>
</svg>
