<?xml version="1.0" encoding="utf-8"?>
<!-- Generator: Adobe Illustrator 19.0.0, SVG Export Plug-In . SVG Version: 6.00 Build 0)  -->
<svg version="1.1" id="Calque_1" xmlns="http://www.w3.org/2000/svg" xmlns:xlink="http://www.w3.org/1999/xlink" x="0px" y="0px"
	 viewBox="-429 241.1 99.2 79.9" style="enable-background:new -429 241.1 99.2 79.9;" xml:space="preserve">
<style type="text/css">
	.st0{fill:#FFFFFF;}
</style>
<path id="XMLID_157_" class="st0" d="M-379.5,321c-13.8,0-27.6,0-41.4,0c-3.9,0-7.1-2.5-7.9-6.3c-0.1-0.6-0.2-1.3-0.2-2
	c0-21,0-42.1,0-63.1c0-5.1,3.4-8.5,8.5-8.5c27.4,0,54.8,0,82.2,0c5,0,8.4,3.4,8.4,8.3c0,21.1,0,42.2,0,63.3c0,4.9-3.5,8.3-8.3,8.3
	C-351.9,321-365.7,321-379.5,321z M-379.4,317.9c13.7,0,27.4,0,41.1,0c3.2,0,5.2-2,5.2-5.2c0-21.1,0-42.2,0-63.3
	c0-3.2-2-5.1-5.1-5.1c-27.4,0-54.9,0-82.3,0c-3.3,0-5.2,2-5.2,5.2c0,21.1,0,42.1,0,63.2c0,0.5,0,1.1,0.2,1.6
	c0.6,2.2,2.5,3.6,4.9,3.6C-407,317.9-393.2,317.9-379.4,317.9z"/>
<path id="XMLID_153_" class="st0" d="M-341.1,253.9c0,18.1,0,36.1,0,54.2c-25.5,0-51,0-76.6,0c0-18.1,0-36.1,0-54.2
	C-392.2,253.9-366.7,253.9-341.1,253.9z M-414.5,257.1c0,16,0,31.9,0,47.9c23.4,0,46.8,0,70.2,0c0-16,0-31.9,0-47.9
	C-367.7,257.1-391.1,257.1-414.5,257.1z"/>
<path id="XMLID_85_" class="st0" d="M-381,311.5c1,0,2,0,3.1,0c0,1,0,2,0,3.1c-1,0-2,0-3.1,0C-381,313.6-381,312.6-381,311.5z"/>
<path id="XMLID_84_" class="st0" d="M-384.2,311.5c0,1.1,0,2.1,0,3.1c-1,0-2,0-3.1,0c0-1,0-2.1,0-3.1
	C-386.2,311.5-385.2,311.5-384.2,311.5z"/>
<path id="XMLID_83_" class="st0" d="M-371.5,311.5c0,1.1,0,2.1,0,3.1c-1,0-2,0-3.1,0c0-1,0-2,0-3.1
	C-373.5,311.5-372.5,311.5-371.5,311.5z"/>
<path id="XMLID_126_" class="st0" d="M-390.6,281c0-4.4,0-8.7,0-13.1c0-1.1,0.2-2,1.2-2.5s1.9-0.3,2.9,0.3c6.6,4.4,13.3,8.7,19.9,13
	c0.6,0.4,1.2,1,1.5,1.7c0.4,1-0.1,2.1-1.3,2.9c-6.3,4.1-12.7,8.3-19,12.4c-0.4,0.3-0.9,0.6-1.3,0.9c-0.8,0.6-1.7,0.6-2.6,0.2
	c-0.9-0.5-1.3-1.3-1.3-2.3C-390.6,290-390.6,285.5-390.6,281z M-387.4,269c0,8.1,0,16.1,0,24.2c6.2-4.1,12.3-8.1,18.5-12.1
	C-375.1,277-381.2,273-387.4,269z"/>
</svg>
