<?xml version="1.0" encoding="utf-8"?>
<!-- Generator: Adobe Illustrator 19.0.0, SVG Export Plug-In . SVG Version: 6.00 Build 0)  -->
<svg version="1.1" id="Calque_1" xmlns="http://www.w3.org/2000/svg" xmlns:xlink="http://www.w3.org/1999/xlink" x="0px" y="0px"
	 viewBox="0 0 4 6.9" style="enable-background:new 0 0 4 6.9;" xml:space="preserve">
<style type="text/css">
	.st0{fill:#02004A;}
</style>
<path class="st0" d="M2.8,0l0.5,0C3.7,0,4,0.4,4,0.8v5.3c0,0.4-0.3,0.8-0.7,0.8H2.8c-0.4,0-0.7-0.4-0.7-0.8V0.8C2.2,0.4,2.5,0,2.8,0
	z M3.2,6.3c0.1,0,0.1-0.1,0.1-0.3V0.9c0-0.1-0.1-0.3-0.1-0.3H3c-0.1,0-0.1,0.1-0.1,0.3V6c0,0.1,0.1,0.3,0.1,0.3H3.2z"/>
<path class="st0" d="M0.7,0l0.5,0c0.4,0,0.7,0.4,0.7,0.8v5.3c0,0.4-0.3,0.8-0.7,0.8H0.7C0.3,6.9,0,6.6,0,6.1l0-5.3
	C0,0.4,0.3,0,0.7,0z M1.1,6.3c0.1,0,0.1-0.1,0.1-0.3V0.9c0-0.1-0.1-0.3-0.1-0.3H0.8c-0.1,0-0.1,0.1-0.1,0.3V6c0,0.1,0.1,0.3,0.1,0.3
	H1.1z"/>
</svg>
